<svg xmlns="http://www.w3.org/2000/svg" xmlns:xlink="http://www.w3.org/1999/xlink" width="14" height="14" viewBox="0 0 14 14">
  <defs>
    <style>
      .cls-1 {
        fill: none;
      }

      .cls-2 {
        clip-path: url(#clip-path);
      }

      .cls-3 {
        fill: #999;
      }
    </style>
    <clipPath id="clip-path">
      <rect id="사각형_282" data-name="사각형 282" class="cls-1" width="14" height="14" transform="translate(0 -0.405)"/>
    </clipPath>
  </defs>
  <g id="그룹_1293" data-name="그룹 1293" transform="translate(0 0.405)">
    <g id="그룹_1107" data-name="그룹 1107" class="cls-2" transform="translate(0)">
      <path id="패스_142" data-name="패스 142" class="cls-3" d="M7.774,2.85a1.594,1.594,0,0,1,.987.339l3.064,2.383a1.6,1.6,0,0,1,.621,1.268v4.072a1.609,1.609,0,0,1-1.607,1.607H4.71A1.609,1.609,0,0,1,3.1,10.912V6.84a1.6,1.6,0,0,1,.621-1.268L6.787,3.188a1.594,1.594,0,0,1,.987-.339m0-.85a2.453,2.453,0,0,0-1.508.518L3.2,4.9A2.456,2.456,0,0,0,2.253,6.84v4.072A2.457,2.457,0,0,0,4.71,13.368h6.129A2.457,2.457,0,0,0,13.3,10.912V6.84A2.456,2.456,0,0,0,12.347,4.9L9.283,2.518A2.453,2.453,0,0,0,7.774,2" transform="translate(-0.977 -0.867)"/>
      <path id="패스_143" data-name="패스 143" class="cls-3" d="M12.215,15.166a.92.92,0,1,1-.92-.919.92.92,0,0,1,.92.919" transform="translate(-4.498 -6.177)"/>
    </g>
  </g>
</svg>
